# Blender v2.79 (sub 0) OBJ File: 'rocket.blend'
# www.blender.org
mtllib rocket.mtl
o Sphere.001
v 0.000000 0.613875 -0.070515
v 0.000000 -0.332227 -0.092132
v 0.000000 -0.613875 -0.070515
v 0.019081 0.802067 -0.033050
v 0.035258 0.613875 -0.061068
v 0.046066 0.332227 -0.079789
v 0.049862 -0.000000 -0.086363
v 0.046066 -0.332227 -0.079789
v 0.035258 -0.613875 -0.061068
v -0.000000 0.868151 -0.000000
v 0.033050 0.802067 -0.019081
v 0.061068 0.613875 -0.035258
v 0.079789 0.332227 -0.046066
v 0.086363 -0.000000 -0.049862
v 0.079789 -0.332227 -0.046066
v 0.061068 -0.613875 -0.035258
v 0.038162 0.802067 -0.000000
v 0.070515 0.613875 -0.000000
v 0.092132 0.332227 -0.000000
v 0.099723 -0.000000 -0.000000
v 0.092132 -0.332227 -0.000000
v 0.070515 -0.613875 -0.000000
v 0.033050 0.802067 0.019081
v 0.061068 0.613875 0.035258
v 0.079789 0.332227 0.046066
v 0.086363 -0.000000 0.049862
v 0.079789 -0.332227 0.046066
v 0.061068 -0.613875 0.035258
v 0.019081 0.802067 0.033050
v 0.035258 0.613875 0.061068
v 0.046066 0.332227 0.079789
v 0.049862 -0.000000 0.086363
v 0.046066 -0.332227 0.079789
v 0.035258 -0.613875 0.061068
v -0.000000 0.802067 0.038162
v -0.000000 0.613875 0.070515
v -0.000000 0.332227 0.092132
v -0.000000 -0.000000 0.099723
v -0.000000 -0.332227 0.092132
v -0.000000 -0.613875 0.070515
v -0.019081 0.802067 0.033050
v -0.035258 0.613875 0.061068
v -0.046066 0.332227 0.079789
v -0.049862 -0.000000 0.086363
v -0.046066 -0.332227 0.079789
v -0.035258 -0.613875 0.061068
v -0.033050 0.802067 0.019081
v -0.061068 0.613875 0.035258
v -0.079789 0.332227 0.046066
v -0.086363 -0.000000 0.049862
v -0.079789 -0.332227 0.046066
v -0.061068 -0.613875 0.035258
v -0.038162 0.802067 -0.000000
v -0.070515 0.613875 -0.000000
v -0.092132 0.332227 -0.000000
v -0.099723 -0.000000 -0.000000
v -0.092132 -0.332227 -0.000000
v -0.070515 -0.613875 -0.000000
v -0.033050 0.802067 -0.019081
v -0.061068 0.613875 -0.035258
v -0.079789 0.332227 -0.046066
v -0.086363 -0.000000 -0.049862
v -0.079789 -0.332227 -0.046066
v -0.061068 -0.613875 -0.035258
v -0.019081 0.802067 -0.033050
v -0.035258 0.613875 -0.061068
v -0.046066 0.332227 -0.079789
v -0.049862 -0.000000 -0.086363
v -0.046066 -0.332227 -0.079789
v -0.035258 -0.613875 -0.061068
v 0.000000 0.802067 -0.038162
v 0.000000 0.332227 -0.092132
v 0.000000 -0.000000 -0.099723
v 0.111021 -0.931840 0.011143
v 0.132639 -0.485504 0.011143
v 0.120295 -0.485504 0.058437
v 0.101574 -0.931840 0.047340
v -0.064910 -0.931840 0.093139
v -0.075719 -0.485504 0.112359
v -0.109442 -0.485504 0.077737
v -0.090721 -0.931840 0.066641
v -0.046111 -0.931839 -0.104282
v -0.056920 -0.485504 -0.123502
v -0.010854 -0.485504 -0.136175
v -0.010854 -0.931840 -0.113981
vn 0.2581 -0.0739 -0.9633
vn 0.2588 0.0221 -0.9657
vn 0.2553 0.1638 -0.9529
vn 0.2588 -0.0221 -0.9657
vn 0.2581 0.0739 -0.9633
vn 0.2260 0.4871 -0.8436
vn 0.6976 0.1638 -0.6976
vn 0.7069 -0.0221 -0.7069
vn 0.7052 0.0739 -0.7052
vn 0.6175 0.4871 -0.6175
vn 0.7052 -0.0739 -0.7052
vn 0.7069 0.0221 -0.7069
vn 0.9657 -0.0221 -0.2588
vn 0.9633 0.0739 -0.2581
vn 0.8436 0.4871 -0.2260
vn 0.9633 -0.0739 -0.2581
vn 0.9657 0.0221 -0.2588
vn 0.9529 0.1638 -0.2553
vn 0.8436 0.4871 0.2260
vn 0.9657 0.0221 0.2588
vn 0.9529 0.1638 0.2553
vn 0.9657 -0.0221 0.2588
vn 0.9633 0.0739 0.2581
vn 0.7052 -0.0739 0.7052
vn 0.7069 0.0221 0.7069
vn 0.6976 0.1638 0.6976
vn 0.7069 -0.0221 0.7069
vn 0.7052 0.0739 0.7052
vn 0.6175 0.4871 0.6175
vn 0.2588 -0.0221 0.9657
vn 0.2581 0.0739 0.9633
vn 0.2260 0.4871 0.8436
vn 0.2581 -0.0739 0.9633
vn 0.2588 0.0221 0.9657
vn 0.2553 0.1638 0.9529
vn -0.2588 -0.0221 0.9657
vn -0.2581 0.0739 0.9633
vn -0.2260 0.4871 0.8436
vn -0.2581 -0.0739 0.9633
vn -0.2588 0.0221 0.9657
vn -0.2553 0.1638 0.9529
vn -0.7069 0.0221 0.7069
vn -0.6976 0.1638 0.6976
vn -0.7069 -0.0221 0.7069
vn -0.7052 0.0739 0.7052
vn -0.6175 0.4871 0.6175
vn -0.9657 0.0221 0.2588
vn -0.9529 0.1638 0.2553
vn -0.9657 -0.0221 0.2588
vn -0.9633 0.0739 0.2581
vn -0.8436 0.4871 0.2260
vn -0.9633 -0.0739 0.2581
vn -0.9657 -0.0221 -0.2588
vn -0.9633 0.0739 -0.2581
vn -0.8436 0.4871 -0.2260
vn -0.9633 -0.0739 -0.2581
vn -0.9657 0.0221 -0.2588
vn -0.9529 0.1638 -0.2553
vn -0.7052 0.0739 -0.7052
vn -0.6175 0.4871 -0.6175
vn -0.7052 -0.0739 -0.7052
vn -0.7069 0.0221 -0.7069
vn -0.6976 0.1638 -0.6976
vn -0.7069 -0.0221 -0.7069
vn -0.2588 0.0221 -0.9657
vn -0.2553 0.1638 -0.9529
vn -0.2588 -0.0221 -0.9657
vn -0.2581 0.0739 -0.9633
vn -0.2260 0.4871 -0.8436
vn 0.9665 -0.0468 0.2523
vn 0.2003 -0.0119 -0.9797
vn 0.9321 0.2652 0.2465
vn -0.3446 -0.0105 0.9387
vn -0.9584 -0.1313 -0.2534
vn -0.7155 -0.0473 0.6970
vn 0.7726 -0.0101 0.6348
vn -0.6845 0.2740 0.6755
vn -0.6788 -0.0128 -0.7342
vn 0.7052 -0.1352 -0.6960
vn -0.2649 -0.0479 -0.9631
vn -0.9523 -0.0124 0.3049
vn -0.2513 0.2828 -0.9257
vn 0.9828 -0.0111 -0.1841
vn 0.2595 -0.1391 0.9557
usemtl None
s off
f 3//1 2//1 8//1 9//1
f 73//2 72//2 6//2 7//2
f 1//3 71//3 4//3 5//3
f 2//4 73//4 7//4 8//4
f 72//5 1//5 5//5 6//5
f 71//6 10//6 4//6
f 5//7 4//7 11//7 12//7
f 8//8 7//8 14//8 15//8
f 6//9 5//9 12//9 13//9
f 4//10 10//10 11//10
f 9//11 8//11 15//11 16//11
f 7//12 6//12 13//12 14//12
f 15//13 14//13 20//13 21//13
f 13//14 12//14 18//14 19//14
f 11//15 10//15 17//15
f 16//16 15//16 21//16 22//16
f 14//17 13//17 19//17 20//17
f 12//18 11//18 17//18 18//18
f 17//19 10//19 23//19
f 20//20 19//20 25//20 26//20
f 18//21 17//21 23//21 24//21
f 21//22 20//22 26//22 27//22
f 19//23 18//23 24//23 25//23
f 28//24 27//24 33//24 34//24
f 26//25 25//25 31//25 32//25
f 24//26 23//26 29//26 30//26
f 27//27 26//27 32//27 33//27
f 25//28 24//28 30//28 31//28
f 23//29 10//29 29//29
f 33//30 32//30 38//30 39//30
f 31//31 30//31 36//31 37//31
f 29//32 10//32 35//32
f 34//33 33//33 39//33 40//33
f 32//34 31//34 37//34 38//34
f 30//35 29//35 35//35 36//35
f 39//36 38//36 44//36 45//36
f 37//37 36//37 42//37 43//37
f 35//38 10//38 41//38
f 40//39 39//39 45//39 46//39
f 38//40 37//40 43//40 44//40
f 36//41 35//41 41//41 42//41
f 44//42 43//42 49//42 50//42
f 42//43 41//43 47//43 48//43
f 45//44 44//44 50//44 51//44
f 43//45 42//45 48//45 49//45
f 41//46 10//46 47//46
f 50//47 49//47 55//47 56//47
f 48//48 47//48 53//48 54//48
f 51//49 50//49 56//49 57//49
f 49//50 48//50 54//50 55//50
f 47//51 10//51 53//51
f 52//52 51//52 57//52 58//52
f 57//53 56//53 62//53 63//53
f 55//54 54//54 60//54 61//54
f 53//55 10//55 59//55
f 58//56 57//56 63//56 64//56
f 56//57 55//57 61//57 62//57
f 54//58 53//58 59//58 60//58
f 61//59 60//59 66//59 67//59
f 59//60 10//60 65//60
f 64//61 63//61 69//61 70//61
f 62//62 61//62 67//62 68//62
f 60//63 59//63 65//63 66//63
f 63//64 62//64 68//64 69//64
f 68//65 67//65 72//65 73//65
f 66//66 65//66 71//66 1//66
f 69//67 68//67 73//67 2//67
f 67//68 66//68 1//68 72//68
f 65//69 10//69 71//69
f 74//70 75//70 76//70 77//70
f 21//71 75//71 74//71 22//71
f 27//72 76//72 75//72 21//72
f 28//73 77//73 76//73 27//73
f 22//74 74//74 77//74 28//74
f 78//75 79//75 80//75 81//75
f 45//76 79//76 78//76 46//76
f 51//77 80//77 79//77 45//77
f 52//78 81//78 80//78 51//78
f 46//79 78//79 81//79 52//79
f 82//80 83//80 84//80 85//80
f 69//81 83//81 82//81 70//81
f 2//82 84//82 83//82 69//82
f 3//83 85//83 84//83 2//83
f 70//84 82//84 85//84 3//84
o Circle
v 0.227064 -1.083461 -1.165935
v 0.031974 -1.083461 -1.146721
v -0.155620 -1.083461 -1.089815
v -0.328506 -1.083461 -0.997405
v -0.480043 -1.083461 -0.873042
v -0.604406 -1.083461 -0.721506
v -0.696816 -1.083461 -0.548619
v -0.753721 -1.083461 -0.361026
v -0.772936 -1.083461 -0.165936
v -0.753721 -1.083461 0.029155
v -0.696816 -1.083461 0.216748
v -0.604406 -1.083461 0.389635
v -0.480043 -1.083461 0.541171
v -0.328506 -1.083461 0.665534
v -0.155619 -1.083461 0.757944
v 0.031974 -1.083461 0.814850
v 0.227064 -1.083461 0.834065
v 0.422155 -1.083461 0.814850
v 0.609748 -1.083461 0.757944
v 0.782635 -1.083461 0.665534
v 0.934171 -1.083461 0.541171
v 1.058534 -1.083461 0.389634
v 1.150944 -1.083461 0.216747
v 1.207849 -1.083461 0.029154
v 1.227064 -1.083461 -0.165936
v 1.207849 -1.083461 -0.361027
v 1.150943 -1.083461 -0.548620
v 1.058533 -1.083461 -0.721507
v 0.934170 -1.083461 -0.873043
v 0.782633 -1.083461 -0.997406
v 0.609746 -1.083461 -1.089815
v 0.422153 -1.083461 -1.146721
l 87 86
l 88 87
l 89 88
l 90 89
l 91 90
l 92 91
l 93 92
l 94 93
l 95 94
l 96 95
l 97 96
l 98 97
l 99 98
l 100 99
l 101 100
l 102 101
l 103 102
l 104 103
l 105 104
l 106 105
l 107 106
l 108 107
l 109 108
l 110 109
l 111 110
l 112 111
l 113 112
l 114 113
l 115 114
l 116 115
l 117 116
l 86 117
